# xmcd
# 
# Track frame offsets:
#     150
#     15378
#     39694
#     64513
#     89312
#     107429
#     123672
#     143185
#     166132
#     179411
# 
# Disc length: 2574
# 
# Revision: 2
# Processed by: cddbd v1.5.2PL0 Copyright (c) Steve Scherf et al.
# Submitted via: fre:ac v1.0.27
# 
DISCID=7c0a0c0a
DTITLE=Allison Brown - The Company Your Keep
DYEAR=2008
DGENRE=Newgrass
TTITLE0=Crazy Ivan
TTITLE1=Rocket Summer
TTITLE2=The Road West
TTITLE3=Drawing Down the Moon
TTITLE4=Under the (Five) Wire
TTITLE5=Over Nine Waves
TTITLE6=Rain or Shine
TTITLE7=Forky on the Water
TTITLE8=The Clean Plate Club
TTITLE9=Waltz for Mr. B
EXTD=
EXTT0=
EXTT1=
EXTT2=
EXTT3=
EXTT4=
EXTT5=
EXTT6=
EXTT7=
EXTT8=
EXTT9=
PLAYORDER=
